<?xml version="1.0" standalone="no"?>
<!DOCTYPE svg PUBLIC "-//W3C//DTD SVG 20010904//EN"
 "http://www.w3.org/TR/2001/REC-SVG-20010904/DTD/svg10.dtd">
<svg version="1.0" xmlns="http://www.w3.org/2000/svg"
 width="512.000000pt" height="512.000000pt" viewBox="0 0 512.000000 512.000000"
 preserveAspectRatio="xMidYMid meet">

<g transform="translate(0.000000,512.000000) scale(0.100000,-0.100000)"
fill="#000000" stroke="none">
<path d="M2380 5105 c-668 -99 -1146 -723 -1060 -1382 45 -344 218 -645 487
-847 395 -296 900 -338 1335 -109 312 165 553 473 631 808 72 309 36 600 -110
877 -246 466 -764 730 -1283 653z"/>
<path d="M2151 2408 c0 -7 44 -143 97 -303 l97 -290 215 0 215 0 97 290 c53
160 97 296 97 303 1 9 -87 12 -409 12 -322 0 -410 -3 -409 -12z"/>
<path d="M1725 2376 c-464 -121 -827 -474 -960 -933 -50 -171 -55 -241 -55
-865 l0 -578 465 0 c256 0 465 1 465 3 0 1 99 374 219 829 l219 826 -121 371
c-67 204 -126 371 -132 371 -5 -1 -50 -12 -100 -24z"/>
<path d="M3163 2029 l-121 -371 219 -826 c120 -455 219 -828 219 -829 0 -2
209 -3 465 -3 l465 0 0 578 c0 624 -5 694 -55 865 -135 464 -512 825 -978 937
-45 11 -84 20 -87 20 -3 0 -60 -167 -127 -371z"/>
<path d="M2341 1478 c-5 -18 -94 -350 -196 -738 -102 -388 -188 -713 -191
-722 -5 -17 28 -18 606 -18 578 0 611 1 606 18 -3 9 -89 334 -191 722 -102
388 -191 720 -196 738 l-11 32 -208 0 -208 0 -11 -32z"/>
</g>
</svg>
