<?xml version="1.0" standalone="no"?>
<!DOCTYPE svg PUBLIC "-//W3C//DTD SVG 20010904//EN"
 "http://www.w3.org/TR/2001/REC-SVG-20010904/DTD/svg10.dtd">
<svg version="1.0" xmlns="http://www.w3.org/2000/svg"
 width="512.000000pt" height="512.000000pt" viewBox="0 0 512.000000 512.000000"
 preserveAspectRatio="xMidYMid meet">

<g transform="translate(0.000000,512.000000) scale(0.100000,-0.100000)"
fill="#000000" stroke="none">
<path d="M1330 4816 c-580 -166 -1070 -310 -1088 -320 -99 -52 -96 -203 5
-254 21 -11 191 -63 378 -116 187 -54 364 -104 392 -112 l53 -15 0 -124 c0
-276 92 -400 383 -516 340 -137 711 -196 1105 -177 310 14 613 84 887 204 126
56 189 103 242 182 58 87 74 144 80 299 l6 133 66 19 c36 11 163 47 281 81
118 34 223 63 233 66 16 5 17 -35 17 -733 l0 -739 -55 -27 c-108 -53 -198
-162 -230 -279 -13 -52 -16 -100 -13 -270 3 -231 6 -241 78 -280 33 -17 59
-18 377 -16 327 3 343 4 369 24 65 48 69 60 72 244 4 199 -8 290 -48 376 -37
76 -119 160 -194 198 l-56 28 -4 807 c-2 443 -4 815 -5 826 0 11 0 37 0 58 2
41 -19 77 -62 109 -28 21 -2146 628 -2187 627 -15 0 -502 -136 -1082 -303z"/>
<path d="M1065 3148 c45 -388 193 -706 446 -959 221 -221 542 -368 840 -386
235 -14 525 73 755 227 109 73 294 262 371 379 144 217 236 474 259 720 l7 73
-49 -35 c-138 -98 -522 -228 -819 -277 -382 -63 -732 -51 -1125 36 -222 50
-534 168 -644 243 l-47 33 6 -54z"/>
<path d="M1405 1741 c-406 -105 -734 -334 -973 -679 -64 -93 -160 -287 -196
-397 -57 -175 -98 -473 -77 -553 12 -42 51 -85 94 -101 19 -8 341 -11 1013
-11 l984 0 0 353 0 352 -353 530 c-193 291 -359 531 -367 532 -8 1 -64 -10
-125 -26z"/>
<path d="M2906 1234 l-356 -535 0 -350 0 -349 993 0 c947 0 994 1 1027 19 59
31 74 62 79 154 11 259 -102 630 -270 879 -235 348 -594 596 -1004 693 -58 14
-107 25 -109 25 -3 0 -165 -241 -360 -536z m764 -353 c55 -29 75 -64 75 -131
0 -67 -20 -102 -75 -131 -30 -17 -59 -19 -212 -19 -188 0 -216 5 -261 48 -74
71 -45 202 53 241 14 5 106 10 205 10 157 1 185 -1 215 -18z"/>
<path d="M2076 1513 c9 -16 87 -133 173 -261 l155 -233 168 257 c93 141 167
258 164 261 -2 2 -44 -4 -93 -13 -117 -24 -376 -24 -481 -1 -104 24 -108 23
-86 -10z"/>
</g>
</svg>
